<svg width="250" height="90" viewBox="0 0 250 90" fill="none" xmlns="http://www.w3.org/2000/svg">
<path d="M27.5094 11.25H0V76.875L27.5094 11.25Z" fill="white"/>
<path d="M46.8647 11.25H74.3383V76.875L46.8647 11.25Z" fill="white"/>
<path d="M37.1874 35.437L54.6966 76.875H43.209L37.9759 63.682H25.1621L37.1874 35.437Z" fill="white"/>
<path d="M119.217 52.9832L122.461 62.2612C122.569 62.4935 122.73 62.6008 123.017 62.6008H129.253C129.594 62.6008 129.648 62.4399 129.594 62.1003L116.708 26.4007C116.655 26.1147 116.601 26.061 116.314 26.061H108.572C108.357 26.061 108.231 26.2219 108.231 26.4543C108.124 28.3314 107.963 28.9034 107.73 29.4576L96.242 62.0466C96.1882 62.4399 96.3137 62.6008 96.6363 62.6008H102.21C102.55 62.6008 102.712 62.4935 102.837 62.1539L105.902 52.9832H119.217ZM107.676 46.923C109.36 41.8461 111.583 35.339 112.479 31.6207H112.533C113.644 35.5178 116.26 43.2405 117.443 46.923H107.676Z" fill="white"/>
<path d="M146.159 63.155C149.51 63.155 153.077 62.5472 156.697 60.9919C156.984 60.8847 157.037 60.7595 157.037 60.4914C156.93 59.4903 156.804 58.0423 156.804 56.9339V23.3259C156.804 23.1114 156.804 23.0042 156.536 23.0042H150.46C150.227 23.0042 150.12 23.1114 150.12 23.3974V34.7848C149.17 34.6776 148.507 34.6239 147.718 34.6239C137.915 34.6239 131.894 41.0774 131.894 49.1397C131.894 58.4892 138.076 63.155 146.159 63.155V63.155ZM150.12 56.9339C149.116 57.2557 148.005 57.3809 146.876 57.3809C142.431 57.3809 138.793 54.8781 138.793 48.8001C138.793 43.4192 142.539 40.2372 147.503 40.2372C148.507 40.2372 149.385 40.3445 150.12 40.6305V56.9339Z" fill="white"/>
<path d="M176.419 34.624C168.049 34.624 162.87 41.0238 162.87 48.9253C162.87 55.9866 166.992 63.1551 176.293 63.1551C184.161 63.1551 189.681 57.3809 189.681 48.7465C189.681 41.1311 185.003 34.624 176.419 34.624ZM176.078 40.2373C180.809 40.2373 182.817 44.2953 182.817 48.9253C182.817 54.6458 179.86 57.4882 176.419 57.4882C172.171 57.4882 169.662 53.9308 169.662 48.8002C169.662 43.5266 172.333 40.2373 176.078 40.2373V40.2373Z" fill="white"/>
<path d="M195.962 23.0042C195.729 23.0042 195.567 23.1114 195.567 23.3974V61.4388C195.567 61.5997 195.729 61.8858 195.962 61.9394C198.632 62.7617 201.428 63.155 204.313 63.155C212.575 63.155 220.604 58.0423 220.604 47.7454C220.604 40.2908 215.478 34.6239 207.449 34.6239C205.603 34.6239 203.883 34.91 202.378 35.4105L202.306 23.4511C202.306 23.0578 202.198 23.0042 201.804 23.0042H195.962ZM213.74 48.4247C213.74 54.5921 209.51 57.4881 204.94 57.4881C203.99 57.4881 203.148 57.4345 202.378 57.2021V40.9701C203.256 40.6305 204.313 40.3445 206.266 40.3445C210.675 40.3445 213.74 43.1332 213.74 48.4247Z" fill="white"/>
<path d="M243.277 50.4269C246.001 50.4269 248.241 50.3733 249.012 50.1945C249.298 50.1409 249.406 50.0337 249.46 49.8013C249.621 49.1935 249.693 47.9242 249.693 46.369C249.693 41.0775 246.503 34.624 238.259 34.624C229.836 34.624 225.158 41.4708 225.158 49.1935C225.158 56.0402 228.778 63.1551 238.922 63.1551C242.721 63.1551 245.176 62.5473 247.291 61.5462C247.506 61.4389 247.614 61.2602 247.614 60.9384V56.3083C247.614 56.0402 247.452 55.9866 247.291 56.0938C245.176 56.9877 242.882 57.4346 240.373 57.4346C234.692 57.4346 232.112 54.3062 231.95 50.4269H243.277ZM231.95 45.636C232.398 42.9188 234.119 39.9691 237.972 39.9691C242.219 39.9691 243.33 43.5266 243.33 45.1355C243.33 45.1891 243.33 45.4215 243.33 45.5824C243.098 45.636 242.381 45.636 240.266 45.636H231.95Z" fill="white"/>
</svg>
