<svg width="250" height="99" viewBox="0 0 250 99" fill="none" xmlns="http://www.w3.org/2000/svg">
<path d="M78.3575 66.8794L81.3908 59.8021C84.712 62.2573 89.0439 63.5568 93.3769 63.5568C96.5542 63.5568 98.5757 62.3297 98.5757 60.4523C98.5032 55.2523 79.4407 59.2965 79.2957 46.2231C79.2232 39.5789 85.1449 34.4513 93.5219 34.4513C98.5032 34.4513 103.487 35.6794 107.024 38.4965L104.19 45.7248C100.935 43.6355 96.9146 42.1789 93.088 42.1789C90.4886 42.1789 88.755 43.406 88.755 44.996C88.8275 50.1236 108.036 47.3065 108.252 59.8021C108.252 66.591 102.475 71.3578 94.2427 71.3578C88.1782 71.3578 82.618 69.9136 78.3564 66.8794H78.3575ZM199.139 57.2393C198.373 58.5973 197.259 59.7276 195.912 60.5142C194.564 61.3009 193.031 61.7155 191.47 61.7156C186.605 61.7156 182.661 57.7706 182.661 52.9046C182.661 48.0385 186.605 44.0935 191.47 44.0935C193.031 44.0936 194.564 44.5083 195.912 45.2949C197.259 46.0815 198.373 47.2118 199.139 48.5698L207.572 43.8971C204.413 38.2619 198.388 34.4513 191.47 34.4513C181.281 34.4513 173.02 42.7124 173.02 52.9046C173.02 63.0957 181.281 71.3578 191.47 71.3578C198.388 71.3578 204.413 67.5473 207.572 61.912L199.139 57.2393ZM113.725 70.6352H124.267V19.0901H113.726L113.725 70.6352ZM212.896 19.0901V70.6352H223.438V55.1924L235.931 70.6352H249.406L233.52 52.2894L248.25 35.1708H235.353L223.438 49.4031V19.0901H212.896ZM156.747 35.1729V39.3629C155.014 36.4734 150.754 34.4513 146.277 34.4513C137.034 34.4513 129.741 42.6131 129.741 52.8684C129.741 63.1236 137.034 71.3578 146.277 71.3578C150.754 71.3578 155.014 69.3357 156.747 66.4463V70.6352H167.289V35.1729H156.747ZM156.747 57.3106C155.231 59.8382 152.054 61.7146 148.516 61.7146C143.65 61.7146 139.706 57.7706 139.706 52.9046C139.706 48.0385 143.65 44.0935 148.516 44.0935C152.054 44.0935 155.231 46.0432 156.747 48.6422V57.3106Z" fill="white" fill-opacity="0.8"/>
<path d="M22.6824 17.9512C19.2659 17.9512 16.4967 20.7217 16.4967 24.1384C16.4959 24.9502 16.6552 25.7541 16.9657 26.5043C17.2761 27.2545 17.7315 27.9364 18.3059 28.5109C18.8803 29.0855 19.5624 29.5415 20.3133 29.8528C21.0643 30.1642 21.8693 30.3249 22.6824 30.3257H28.8691V24.1384C28.8705 22.499 28.2195 20.9262 27.0593 19.7659C25.8991 18.6056 24.3247 17.9528 22.6824 17.9512V17.9512ZM22.6824 34.4506H6.18618C2.76971 34.4506 0.000488281 37.2211 0.000488281 40.6389C0.000488281 44.0556 2.76971 46.8262 6.18618 46.8262H22.6834C26.0989 46.8262 28.8691 44.0556 28.8691 40.6389C28.8691 37.2211 26.0989 34.4506 22.6824 34.4506" fill="white" fill-opacity="0.8"/>
<path d="M61.8618 40.6389C61.8618 37.2211 59.0916 34.4506 55.6751 34.4506C52.2586 34.4506 49.4894 37.2211 49.4894 40.6389V46.8262H55.6751C57.3174 46.8245 58.8918 46.1718 60.052 45.0114C61.2122 43.8511 61.8632 42.2783 61.8618 40.6389V40.6389ZM45.3656 40.6389V24.1384C45.367 22.499 44.716 20.9262 43.5557 19.7659C42.3955 18.6056 40.8212 17.9528 39.1789 17.9512C35.7624 17.9512 32.9932 20.7217 32.9932 24.1384V40.6378C32.9932 44.0566 35.7624 46.8272 39.1789 46.8272C40.8212 46.8255 42.3955 46.1728 43.5557 45.0125C44.716 43.8522 45.367 42.2793 45.3656 40.6399" fill="white" fill-opacity="0.8"/>
<path d="M39.1789 79.8262C40.8212 79.8245 42.3955 79.1718 43.5558 78.0114C44.716 76.8511 45.367 75.2783 45.3656 73.6389C45.367 71.9995 44.716 70.4266 43.5558 69.2663C42.3955 68.106 40.8212 67.4533 39.1789 67.4516H32.9932V73.6389C32.9932 77.0556 35.7624 79.8262 39.1789 79.8262ZM39.1789 63.3268H55.6761C59.0916 63.3268 61.8618 60.5562 61.8618 57.1384C61.8632 55.499 61.2122 53.9262 60.052 52.7659C58.8918 51.6056 57.3174 50.9528 55.6751 50.9512H39.1789C35.7624 50.9512 32.9932 53.7217 32.9932 57.1384C32.9924 57.9502 33.1517 58.7541 33.4621 59.5043C33.7725 60.2546 34.2279 60.9364 34.8023 61.5109C35.3767 62.0855 36.0589 62.5415 36.8098 62.8528C37.5607 63.1642 38.3657 63.3249 39.1789 63.3257" fill="white" fill-opacity="0.8"/>
<path d="M3.12115e-06 57.1384C-0.000813278 57.9502 0.158537 58.7541 0.468955 59.5043C0.779374 60.2546 1.23478 60.9364 1.80918 61.5109C2.38357 62.0855 3.06571 62.5415 3.81663 62.8528C4.56756 63.1642 5.37257 63.3249 6.1857 63.3257C7.82799 63.3241 9.40238 62.6713 10.5626 61.511C11.7228 60.3507 12.3738 58.7779 12.3724 57.1384V50.9512H6.1857C2.76922 50.9512 3.12115e-06 53.7217 3.12115e-06 57.1384V57.1384ZM16.4962 57.1384V73.6379C16.4962 77.0556 19.2654 79.8262 22.6819 79.8262C24.3242 79.8245 25.8986 79.1718 27.0588 78.0114C28.219 76.8511 28.87 75.2783 28.8687 73.6389V57.1384C28.8695 56.3267 28.7101 55.5226 28.3996 54.7723C28.0891 54.022 27.6336 53.3401 27.0591 52.7656C26.4846 52.191 25.8024 51.7351 25.0513 51.4238C24.3003 51.1124 23.4951 50.9519 22.6819 50.9512C19.2654 50.9512 16.4962 53.7217 16.4962 57.1384Z" fill="white" fill-opacity="0.8"/>
</svg>
