<svg width="39" height="44" viewBox="0 0 39 44" fill="none" xmlns="http://www.w3.org/2000/svg">
<path d="M37.7802 15.0078C37.5673 15.1304 32.5011 17.7168 32.5011 23.4516C32.7399 29.9918 38.8945 32.2853 39 32.2853C38.8945 32.4079 38.0709 35.4098 35.6312 38.5565C33.695 41.2671 31.546 44 28.2828 44C25.1787 44 24.0644 42.1935 20.4827 42.1935C16.6364 42.1935 15.548 44 12.6031 44C9.33985 44 7.03168 41.1207 4.98997 38.4355C2.33748 34.9211 0.0829526 29.406 0.00336052 24.1105C-0.0502776 21.3044 0.53455 18.5461 2.01911 16.2032C4.11446 12.9323 7.85529 10.7119 11.9404 10.6387C15.0705 10.5416 17.8562 12.6155 19.7664 12.6155C21.597 12.6155 25.0195 10.6387 28.8918 10.6387C30.5632 10.6403 35.0204 11.1035 37.7802 15.0078ZM19.5017 10.0784C18.9445 7.51584 20.4827 4.95326 21.9154 3.31862C23.746 1.34177 26.6373 0 29.1306 0C29.2898 2.56258 28.281 5.07582 26.4781 6.90624C24.8603 8.88309 22.0746 10.3713 19.5017 10.0784Z" fill="white"/>
</svg>
