<svg width="300" height="81" viewBox="0 0 300 81" fill="none" xmlns="http://www.w3.org/2000/svg">
<g clip-path="url(#clip0_212_875)">
<path d="M10.8672 37.1814C10.7583 37.0388 10.6145 36.9267 10.4497 36.8559C10.2849 36.7852 10.1047 36.7582 9.92644 36.7776C9.74819 36.797 9.57795 36.8621 9.43218 36.9666C9.2864 37.0711 9.17003 37.2115 9.09429 37.3743L0.110894 55.3579C0.0290563 55.5218 -0.00958311 55.7039 -0.00135567 55.887C0.00687177 56.07 0.0616929 56.2479 0.157903 56.4038C0.254113 56.5597 0.388518 56.6883 0.548357 56.7776C0.708197 56.8668 0.888165 56.9137 1.07117 56.9137H13.5801C13.7804 56.9184 13.9778 56.8647 14.1483 56.7592C14.3188 56.6537 14.455 56.5009 14.5404 56.3194C17.2387 50.7366 15.6034 42.248 10.8672 37.1814Z" fill="white" fill-opacity="0.8"/>
<path d="M17.4556 20.8245C15.2172 24.273 13.9127 28.2449 13.6702 32.3506C13.4277 36.4562 14.2556 40.5544 16.0724 44.243L22.1031 56.3194C22.1923 56.498 22.3293 56.6482 22.4989 56.7532C22.6686 56.8581 22.864 56.9137 23.0634 56.9138H35.5701C35.7531 56.9137 35.933 56.8669 36.0929 56.7776C36.2527 56.6884 36.3871 56.5597 36.4833 56.4039C36.5796 56.248 36.6344 56.0701 36.6426 55.887C36.6508 55.704 36.6122 55.5219 36.5304 55.358C36.5304 55.358 19.7047 21.6606 19.2818 20.8177C19.1982 20.6462 19.068 20.5017 18.9061 20.4008C18.7442 20.3 18.5572 20.2469 18.3666 20.2476C18.1759 20.2483 17.9893 20.3028 17.8282 20.4048C17.6671 20.5069 17.5379 20.6523 17.4556 20.8245V20.8245Z" fill="white" fill-opacity="0.8"/>
<path d="M164.153 35.2439C164.153 39.6971 166.216 43.2326 174.287 44.7935C179.102 45.8056 180.11 46.5837 180.11 48.1907C180.11 49.7516 179.099 50.762 175.708 50.762C171.609 50.6882 167.592 49.5999 164.016 47.5941V54.8474C166.446 56.0411 169.655 57.3726 175.616 57.3726C184.053 57.3726 187.401 53.6054 187.401 48.0068L164.153 35.2439ZM187.401 48.0068C187.401 42.7271 184.604 40.2475 176.717 38.5495C172.361 37.5852 171.306 36.6214 171.306 35.2439C171.306 33.5008 172.865 32.7648 175.754 32.7648C179.239 32.7648 182.678 33.8208 185.934 35.29V28.3572C182.812 26.9346 179.412 26.2288 175.983 26.2914C168.188 26.2914 164.153 29.6887 164.153 35.2439" fill="white" fill-opacity="0.8"/>
<path d="M272.545 26.7502V56.9138H278.964V33.9124L281.67 40.0181L290.749 56.9138H298.819V26.7502H292.4V46.2166L289.969 40.5691L282.678 26.7502H272.545Z" fill="white" fill-opacity="0.8"/>
<path d="M231.716 26.7502H224.701V56.9138H231.716V26.7502Z" fill="white" fill-opacity="0.8"/>
<path d="M216.606 48.0066C216.606 42.7269 213.808 40.2473 205.922 38.5492C201.566 37.5849 200.511 36.6212 200.511 35.2436C200.511 33.5006 202.07 32.7646 204.959 32.7646C208.444 32.7646 211.883 33.8205 215.138 35.2897V28.357C212.017 26.9344 208.617 26.2286 205.188 26.2912C197.393 26.2912 193.358 29.6884 193.358 35.2436C193.358 39.6968 195.421 43.2324 203.491 44.7932C208.306 45.8053 209.315 46.5835 209.315 48.1905C209.315 49.7513 208.304 50.7617 204.913 50.7617C200.814 50.6879 196.797 49.5996 193.22 47.5939V54.8472C195.651 56.0409 198.86 57.3723 204.821 57.3723C213.258 57.3723 216.606 53.6051 216.606 48.0066" fill="white" fill-opacity="0.8"/>
<path d="M109.652 26.7502V56.9138H124.072L126.342 50.3942H116.713V26.7502H109.652Z" fill="white" fill-opacity="0.8"/>
<path d="M81.1641 26.7502V33.2692H88.9592V56.9138H96.0203V33.2692H104.366V26.7502H81.1641Z" fill="white" fill-opacity="0.8"/>
<path d="M70.9244 26.7502H61.6703L51.165 56.9138H59.1876L60.6769 51.8337C64.3447 52.912 68.2449 52.912 71.9127 51.8337L73.402 56.9138H81.4262L70.9244 26.7502ZM66.297 46.3943C64.9902 46.3942 63.6901 46.2069 62.4363 45.8382L66.297 32.6749L70.1578 45.8427C68.9037 46.2099 67.6037 46.3956 66.297 46.3943V46.3943Z" fill="white" fill-opacity="0.8"/>
<path d="M148.933 26.7502H139.679L129.174 56.9138H137.198L138.687 51.8337C142.355 52.912 146.255 52.912 149.923 51.8337L151.412 56.9138H159.437L148.933 26.7502ZM144.306 46.3943C142.999 46.3942 141.699 46.2069 140.445 45.8382L144.306 32.6749L148.167 45.8427C146.913 46.2099 145.612 46.3956 144.306 46.3943Z" fill="white" fill-opacity="0.8"/>
<path d="M256.997 26.7502H247.743L237.238 56.9138H245.262L246.751 51.8337C250.419 52.912 254.319 52.912 257.987 51.8337L259.476 56.9138H267.501L256.997 26.7502ZM252.367 46.3943C251.06 46.3942 249.76 46.2069 248.506 45.8382L252.367 32.6749L256.228 45.8427C254.974 46.2099 253.674 46.3956 252.367 46.3943V46.3943Z" fill="white" fill-opacity="0.8"/>
</g>
<defs>
<clipPath id="clip0_212_875">
<rect width="300" height="81" fill="white"/>
</clipPath>
</defs>
</svg>
