<svg width="44" height="44" viewBox="0 0 44 44" fill="none" xmlns="http://www.w3.org/2000/svg">
<path d="M41.2517 22.4275C41.2517 20.8447 41.1206 19.6897 40.837 18.4919H22.3945V25.6357H33.2198C33.0017 27.4111 31.8231 30.0847 29.204 31.8813L29.1673 32.1204L34.9984 36.5474L35.4024 36.5869C39.1127 33.2288 41.2517 28.288 41.2517 22.4275Z" fill="#4285F4"/>
<path d="M22.3933 41.2501C27.6968 41.2501 32.1491 39.5388 35.4012 36.5872L29.2027 31.8815C27.5441 33.0152 25.3178 33.8065 22.3933 33.8065C17.1989 33.8065 12.7902 30.4486 11.2187 25.8071L10.9883 25.8263L4.925 30.425L4.8457 30.641C8.07582 36.9293 14.7107 41.2501 22.3933 41.2501Z" fill="#34A853"/>
<path d="M11.2201 25.8072C10.8054 24.6094 10.5655 23.326 10.5655 22C10.5655 20.6738 10.8054 19.3905 11.1983 18.1927L11.1873 17.9376L5.04801 13.2651L4.84714 13.3588C3.51585 15.9682 2.75195 18.8986 2.75195 22C2.75195 25.1013 3.51585 28.0315 4.84714 30.641L11.2201 25.8072Z" fill="#FBBC05"/>
<path d="M22.3934 10.1933C26.0818 10.1933 28.5699 11.7547 29.9886 13.0595L35.5322 7.755C32.1276 4.65362 27.6969 2.75 22.3934 2.75C14.7108 2.75 8.07583 7.07052 4.8457 13.3588L11.1969 18.1928C12.7903 13.5514 17.199 10.1933 22.3934 10.1933Z" fill="#EB4335"/>
</svg>

