<svg width="230" height="94" viewBox="0 0 230 94" fill="none" xmlns="http://www.w3.org/2000/svg">
<path d="M69.1705 40.4765H48.0989L66.3469 30.0354L62.7282 23.8209L44.4779 34.2621L55.0114 16.1785L48.742 12.5915L38.2063 30.6705V9.79272H30.9642V30.6728L20.4285 12.5915L14.1568 16.1785L24.6902 34.2575L6.44454 23.8209L2.82352 30.0354L21.0715 40.4765H0V47.6529H21.0692L2.82352 58.094L6.44223 64.3085L24.6925 53.8673L14.1568 71.9509L20.4261 75.5379L30.9642 57.4566V78.3344H38.2063V57.0088L48.9356 75.4237L54.8155 72.0605L44.0838 53.6411L62.7236 64.3062L66.3446 58.0917L48.0989 47.6506H69.1682V40.4765H69.1705V40.4765ZM34.5852 53.8193C33.2925 53.8195 32.0123 53.5672 30.8179 53.077C29.6235 52.5867 28.5382 51.8681 27.6239 50.9621C26.7097 50.056 25.9844 48.9804 25.4896 47.7966C24.9947 46.6127 24.7399 45.3439 24.7398 44.0624C24.7396 42.781 24.9941 41.512 25.4887 40.3281C25.9833 39.1441 26.7083 38.0683 27.6223 37.1621C28.5363 36.2559 29.6215 35.537 30.8158 35.0464C32.0101 34.5559 33.2902 34.3034 34.5829 34.3032C37.1938 34.3029 39.6978 35.3307 41.5442 37.1605C43.3906 38.9903 44.4281 41.4721 44.4284 44.0601C44.4287 46.6481 43.3918 49.1302 41.5459 50.9604C39.6999 52.7906 37.1961 53.819 34.5852 53.8193V53.8193Z" fill="white"/>
<path d="M87.8386 69.1334V18.9929H97.1228V69.1334H87.8386V69.1334ZM176.884 35.0591H185.749V39.2173C187.635 35.893 192.035 34.0904 195.803 34.0904C200.482 34.0904 204.251 36.1009 205.995 39.7679C208.715 35.6097 212.348 34.0904 216.886 34.0904C223.239 34.0904 229.31 37.899 229.31 47.0402V69.1334H220.307V48.9114C220.307 45.2398 218.49 42.4684 214.231 42.4684C210.25 42.4684 207.876 45.5185 207.876 49.1901V69.1357H198.666V48.9114C198.666 45.2398 196.78 42.4684 192.59 42.4684C188.54 42.4684 186.166 45.45 186.166 49.1901V69.1357H176.884V35.0591V35.0591ZM118.104 70.1204C107.645 70.1204 100.071 62.4278 100.071 52.0963C100.071 41.9292 107.622 34.0561 118.104 34.0561C128.638 34.0561 136.138 42.0024 136.138 52.0963C136.138 62.3547 128.56 70.1204 118.104 70.1204ZM118.104 42.3953C115.51 42.399 113.023 43.4226 111.189 45.2418C109.355 47.0609 108.324 49.5268 108.322 52.0985C108.324 54.6703 109.355 57.1362 111.189 58.9553C113.023 60.7744 115.51 61.7981 118.104 61.8018C120.698 61.7975 123.185 60.7736 125.018 58.9545C126.852 57.1355 127.882 54.6699 127.884 52.0985C127.882 49.5272 126.852 47.0616 125.018 45.2426C123.185 43.4235 120.698 42.3996 118.104 42.3953V42.3953ZM155.967 70.1204C145.508 70.1204 137.934 62.4278 137.934 52.0963C137.934 41.9292 145.485 34.0561 155.967 34.0561C166.501 34.0561 174.001 42.0024 174.001 52.0963C174.001 62.3547 166.418 70.1204 155.967 70.1204ZM155.967 42.2788C153.343 42.283 150.828 43.3187 148.973 45.1587C147.118 46.9987 146.075 49.4928 146.072 52.094C146.075 54.6952 147.118 57.1893 148.973 59.0293C150.828 60.8692 153.343 61.9049 155.967 61.9091C158.591 61.9049 161.107 60.8692 162.962 59.0293C164.817 57.1893 165.86 54.6952 165.862 52.094C165.86 49.4928 164.817 46.9987 162.962 45.1587C161.107 43.3187 158.591 42.283 155.967 42.2788V42.2788Z" fill="white"/>
</svg>
