<svg width="250" height="73" viewBox="0 0 250 73" fill="none" xmlns="http://www.w3.org/2000/svg">
<path d="M249.783 33.2056V28.823H244.328V22.0098L244.144 22.0662L239.021 23.6302L238.92 23.6608V28.8232H230.833V25.9473C230.833 24.6082 231.133 23.5834 231.724 22.9C232.312 22.2248 233.152 21.8815 234.223 21.8815C234.994 21.8815 235.791 22.0626 236.594 22.4196L236.795 22.5093V17.8938L236.701 17.8591C235.952 17.5906 234.933 17.4553 233.671 17.4553C232.08 17.4553 230.634 17.8008 229.373 18.4854C228.112 19.171 227.119 20.1497 226.424 21.3941C225.731 22.637 225.38 24.0726 225.38 25.6612V28.823H221.581V33.2056H225.38V51.6685H230.833V33.2056H238.92V44.9385C238.92 49.7706 241.204 52.2194 245.71 52.2194C246.45 52.2194 247.23 52.1328 248.025 51.9633C248.835 51.7893 249.387 51.6155 249.712 51.4299L249.783 51.3874V46.9644L249.561 47.1107C249.265 47.3074 248.897 47.4682 248.465 47.5878C248.031 47.7095 247.669 47.7705 247.388 47.7705C246.332 47.7705 245.551 47.4868 245.067 46.9268C244.577 46.3617 244.328 45.3736 244.328 43.9913V33.2056H249.783ZM209.404 47.7712C207.425 47.7712 205.865 47.1165 204.765 45.8268C203.659 44.5306 203.098 42.6826 203.098 40.3346C203.098 37.9121 203.659 36.0161 204.765 34.697C205.866 33.3866 207.411 32.7215 209.36 32.7215C211.251 32.7215 212.756 33.3567 213.834 34.6105C214.917 35.8708 215.467 37.7516 215.467 40.2022C215.467 42.6831 214.95 44.5887 213.93 45.8634C212.918 47.1285 211.395 47.7712 209.404 47.7712V47.7712ZM209.647 28.2726C205.871 28.2726 202.872 29.3765 200.733 31.5535C198.596 33.7308 197.513 36.7439 197.513 40.5098C197.513 44.0868 198.57 46.9639 200.657 49.06C202.743 51.1567 205.582 52.2189 209.094 52.2189C212.755 52.2189 215.694 51.0996 217.832 48.8924C219.969 46.6876 221.051 43.703 221.051 40.0251C221.051 36.3922 220.035 33.4936 218.031 31.4116C216.025 29.3285 213.204 28.2726 209.647 28.2726V28.2726ZM188.721 28.2726C186.153 28.2726 184.028 28.9281 182.405 30.2205C180.772 31.5205 179.944 33.2256 179.944 35.2889C179.944 36.3614 180.122 37.314 180.474 38.1221C180.828 38.9328 181.376 39.6466 182.104 40.2456C182.826 40.8399 183.941 41.4623 185.418 42.0956C186.66 42.6054 187.586 43.0367 188.175 43.3766C188.75 43.7097 189.158 44.0446 189.388 44.3708C189.612 44.6899 189.726 45.1267 189.726 45.6658C189.726 47.2006 188.574 47.9474 186.203 47.9474C185.324 47.9474 184.321 47.7642 183.222 47.4031C182.131 47.0475 181.102 46.5266 180.17 45.8588L179.943 45.6969V50.9345L180.026 50.9731C180.798 51.3284 181.771 51.628 182.917 51.8638C184.061 52.0998 185.101 52.2198 186.004 52.2198C188.792 52.2198 191.036 51.5612 192.674 50.2612C194.322 48.9522 195.157 47.2069 195.157 45.0723C195.157 43.5323 194.708 42.2118 193.821 41.1467C192.941 40.0904 191.413 39.1206 189.282 38.2634C187.585 37.5836 186.497 37.0192 186.048 36.586C185.616 36.1675 185.396 35.5757 185.396 34.8263C185.396 34.1619 185.667 33.6296 186.224 33.1986C186.785 32.7654 187.565 32.545 188.544 32.545C189.453 32.545 190.382 32.6882 191.307 32.9688C192.231 33.2494 193.042 33.6253 193.719 34.085L193.942 34.2368V29.2685L193.857 29.2318C193.232 28.9645 192.408 28.7357 191.407 28.5501C190.411 28.3657 189.507 28.2726 188.721 28.2726V28.2726ZM165.728 47.7712C163.75 47.7712 162.189 47.1165 161.089 45.8268C159.983 44.5306 159.423 42.6831 159.423 40.3346C159.423 37.9121 159.983 36.0161 161.091 34.697C162.19 33.3866 163.735 32.7215 165.685 32.7215C167.575 32.7215 169.08 33.3567 170.158 34.6105C171.242 35.8708 171.792 37.7516 171.792 40.2022C171.792 42.6831 171.274 44.5887 170.255 45.8634C169.242 47.1285 167.72 47.7712 165.728 47.7712V47.7712ZM165.971 28.2726C162.195 28.2726 159.195 29.3765 157.058 31.5535C154.921 33.7308 153.837 36.7439 153.837 40.5098C153.837 44.0882 154.895 46.9639 156.981 49.06C159.068 51.1567 161.907 52.2189 165.419 52.2189C169.079 52.2189 172.019 51.0996 174.156 48.8924C176.293 46.6876 177.376 43.703 177.376 40.0251C177.376 36.3922 176.36 33.4936 174.355 31.4116C172.349 29.3285 169.528 28.2726 165.971 28.2726V28.2726ZM145.56 32.7794V28.823H140.173V51.668H145.56V39.9819C145.56 37.9948 146.011 36.3623 146.902 35.1293C147.782 33.9109 148.954 33.2936 150.386 33.2936C150.871 33.2936 151.416 33.3734 152.006 33.5312C152.589 33.6882 153.012 33.8586 153.262 34.038L153.488 34.2017V28.7839L153.401 28.7466C152.899 28.534 152.189 28.4267 151.292 28.4267C149.938 28.4267 148.727 28.8606 147.689 29.7149C146.778 30.4659 146.12 31.4955 145.617 32.7794H145.56ZM130.527 28.2726C128.056 28.2726 125.852 28.8013 123.977 29.8434C122.098 30.888 120.645 32.3792 119.657 34.2754C118.673 36.1671 118.173 38.3767 118.173 40.8408C118.173 42.9993 118.658 44.9802 119.615 46.726C120.573 48.4746 121.929 49.8427 123.646 50.7915C125.36 51.7392 127.341 52.2196 129.535 52.2196C132.094 52.2196 134.28 51.709 136.032 50.7021L136.103 50.6616V45.7383L135.877 45.9032C135.083 46.4801 134.196 46.9405 133.241 47.2722C132.289 47.6037 131.421 47.7712 130.66 47.7712C128.547 47.7712 126.85 47.1114 125.618 45.8106C124.384 44.5082 123.758 42.6792 123.758 40.3777C123.758 38.0618 124.411 36.1859 125.697 34.8017C126.98 33.4216 128.679 32.7215 130.749 32.7215C132.52 32.7215 134.245 33.3196 135.877 34.5008L136.103 34.6645V29.477L136.03 29.436C135.416 29.093 134.578 28.8097 133.538 28.595C132.502 28.3806 131.49 28.2726 130.527 28.2726V28.2726ZM114.463 28.8232H109.077V51.668H114.463V28.8232V28.8232ZM111.825 19.0912C110.939 19.0912 110.166 19.3923 109.53 19.9889C108.892 20.5872 108.569 21.3406 108.569 22.2296C108.569 23.1047 108.889 23.8443 109.52 24.4267C110.148 25.0074 110.924 25.3018 111.826 25.3018C112.727 25.3018 113.506 25.0074 114.141 24.4277C114.78 23.8443 115.104 23.1049 115.104 22.2296C115.104 21.3717 114.789 20.6261 114.167 20.013C113.546 19.4012 112.758 19.0912 111.825 19.0912ZM98.3859 27.1377V51.668H103.883V19.7905H96.2748L86.6043 43.4682L77.2197 19.7905H69.3018V51.6678H74.4675V27.1353H74.6449L84.5548 51.668H88.4533L98.2085 27.1377H98.3859V27.1377Z" fill="white"/>
<path d="M25.3392 34.4184H0V9.13843H25.3392V34.4184Z" fill="white"/>
<path d="M53.3167 34.4184H27.978V9.13843H53.3167V34.4184Z" fill="white"/>
<path d="M25.3384 62.3403H0V37.0605H25.3384V62.3403Z" fill="white"/>
<path d="M53.3167 62.3403H27.978V37.0605H53.3167V62.3403Z" fill="white"/>
</svg>
