<svg width="44" height="44" viewBox="0 0 44 44" fill="none" xmlns="http://www.w3.org/2000/svg">
<path d="M25.5195 2.86365L25.5019 11.3344L25.4843 19.8051L24.6758 17.8387V17.8337L23.627 36.6911C24.6582 39.192 25.209 40.5282 25.2148 40.5332C25.2207 40.5383 25.8066 40.5685 26.5156 40.5988C28.6601 40.6895 31.3202 40.8862 33.3416 41.103C33.8104 41.1534 34.2088 41.1786 34.2381 41.1584C34.2674 41.1383 34.2732 32.5163 34.2674 21.9934L34.2498 2.86365H25.5195Z" fill="url(#paint0_linear_97_1177)"/>
<path d="M9.72656 2.83829V21.9883C9.72656 32.5212 9.73828 41.1483 9.75586 41.1634C9.77344 41.1786 10.5293 41.113 11.4433 41.0273C12.3574 40.9416 13.6171 40.8307 14.2441 40.7853C15.205 40.7147 18.0878 40.5584 18.4159 40.5533C18.5155 40.5533 18.5213 40.1248 18.5331 32.4406L18.5506 24.3278L19.2479 26.022C19.3534 26.2841 19.3885 26.3648 19.494 26.622L20.5428 7.76948C20.3201 7.22998 20.4373 7.51234 20.1854 6.8972C19.3299 4.8148 18.6034 3.0551 18.5741 2.97443L18.5155 2.83325H9.72656V2.83829Z" fill="url(#paint1_linear_97_1177)"/>
<path d="M9.72656 2.83829L18.5448 24.3428V24.3327L19.2421 26.0269C23.1151 35.4606 25.1951 40.5229 25.2069 40.5329C25.2127 40.538 25.7987 40.5682 26.5076 40.5985C28.6521 40.6892 31.3123 40.8859 33.3337 41.1027C33.7966 41.1531 34.2009 41.1783 34.2243 41.1582L25.4822 19.7999V19.8049L24.6737 17.8385C23.8827 15.9175 23.3553 14.6317 20.1737 6.89718C19.3183 4.81479 18.5917 3.0551 18.5624 2.97443L18.5038 2.83325H14.1152L9.72656 2.83829Z" fill="#E30A17"/>
<defs>
<linearGradient id="paint0_linear_97_1177" x1="38.205" y1="31.5018" x2="24.2318" y2="37.6383" gradientUnits="userSpaceOnUse">
<stop stop-color="#B20610"/>
<stop offset="0.255959" stop-color="#B20610"/>
<stop offset="1" stop-color="#590004"/>
</linearGradient>
<linearGradient id="paint1_linear_97_1177" x1="5.48925" y1="11.2353" x2="20.6008" y2="4.67553" gradientUnits="userSpaceOnUse">
<stop stop-color="#B20610"/>
<stop offset="0.255959" stop-color="#B20610"/>
<stop offset="1" stop-color="#590004"/>
</linearGradient>
</defs>
</svg>
