<svg width="250" height="75" viewBox="0 0 250 75" fill="none" xmlns="http://www.w3.org/2000/svg">
<path d="M16.0696 23.203L13.9922 30.8969L25.8827 23.1592L18.1061 52.3553L26.0041 52.362L37.4923 9.23804" fill="white"/>
<path d="M3.27106 40.088L0 52.3621H16.1878L22.8117 27.3932L3.27106 40.088ZM59.5015 29.2818C59.1059 30.7617 58.3435 31.8487 57.2065 32.5428C56.0722 33.2356 54.4802 33.5833 52.4252 33.5833H45.8963L48.1887 24.983H54.7176C56.7699 24.983 58.1799 25.3281 58.9449 26.0315C59.7099 26.7349 59.8946 27.81 59.5015 29.2964V29.2818ZM66.2613 29.1106C67.0922 26.0049 66.7493 23.6159 65.2298 21.9437C63.713 20.2846 61.0513 19.4485 57.2527 19.4485H42.682L33.9108 52.3767H40.9898L44.5246 39.1046H49.1674C50.2094 39.1046 51.0298 39.2771 51.6286 39.6089C52.2287 39.954 52.5809 40.5512 52.689 41.4139L53.9526 52.3767H61.5367L60.3074 42.1572C60.0568 39.8744 59.0188 38.5339 57.1947 38.1357C59.52 37.4588 61.4681 36.3307 63.0377 34.7646C64.5963 33.2099 65.7099 31.2614 66.2613 29.1239V29.1106ZM83.4686 40.5911C82.8751 42.8208 81.965 44.5063 80.7344 45.6876C79.5025 46.8688 78.0305 47.4528 76.3132 47.4528C74.5642 47.4528 73.3785 46.8821 72.752 45.7274C72.1241 44.5727 72.103 42.9004 72.686 40.7105C73.269 38.5206 74.1989 36.8085 75.4783 35.5742C76.7577 34.3399 78.2534 33.7227 79.9707 33.7227C81.6854 33.7227 82.8593 34.32 83.4528 35.5052C84.0595 36.6957 84.0727 38.3985 83.4792 40.6149L83.4686 40.5911ZM86.5708 28.9381L85.6845 32.2694C85.302 31.0749 84.5594 30.1193 83.462 29.4026C82.362 28.6992 81.0008 28.3408 79.3772 28.3408C77.3855 28.3408 75.473 28.8585 73.6396 29.8937C71.8062 30.9289 70.1971 32.3889 68.8254 34.2735C67.4536 36.1582 66.4512 38.295 65.8049 40.6972C65.1718 43.1128 65.0399 45.223 65.4224 47.0546C65.8181 48.8994 66.6491 50.3063 67.9285 51.2884C69.2211 52.2838 70.8698 52.7749 72.8878 52.7749C74.4914 52.7831 76.0769 52.4341 77.5306 51.753C78.9679 51.1006 80.2463 50.1403 81.2765 48.9393L80.3532 52.4113H87.1987L93.4493 28.95H86.5906L86.5708 28.9381ZM118.048 28.9381H98.1409L96.7494 34.1673H108.333L93.0193 47.4793L91.7109 52.39H112.26L113.652 47.1608H101.24L116.789 33.6497L118.048 28.9381ZM135.571 40.5512C134.955 42.8606 134.041 44.5966 132.834 45.7274C131.627 46.8688 130.166 47.4395 128.45 47.4395C124.862 47.4395 123.683 45.1434 124.907 40.5512C125.514 38.2684 126.432 36.5523 127.658 35.3963C128.885 34.2363 130.371 33.6577 132.119 33.6577C133.834 33.6577 134.992 34.2324 135.588 35.3897C136.184 36.5444 136.179 38.2658 135.571 40.5486V40.5512ZM139.578 29.8207C138.002 28.8332 135.99 28.3395 133.537 28.3395C131.053 28.3395 128.754 28.8306 126.639 29.8127C124.532 30.7887 122.68 32.2457 121.231 34.0678C119.74 35.9126 118.668 38.076 118.01 40.5446C117.364 43.0039 117.284 45.1633 117.786 47.0121C118.287 48.857 119.342 50.2771 120.925 51.2592C122.521 52.2493 124.552 52.7417 127.045 52.7417C129.498 52.7417 131.78 52.2453 133.877 51.2579C135.974 50.2651 137.768 48.8556 139.259 46.9975C140.749 45.1474 141.817 42.9893 142.477 40.5207C143.136 38.0521 143.215 35.8967 142.714 34.0439C142.213 32.1991 141.171 30.7789 139.601 29.7902L139.578 29.8207ZM164.016 35.2052L165.77 28.8213C165.176 28.516 164.398 28.3568 163.422 28.3568C161.853 28.3568 160.349 28.747 158.898 29.538C157.65 30.2096 156.59 31.1572 155.693 32.3437L156.603 28.9062L154.615 28.9142H149.735L143.444 52.3661H150.385L153.65 40.1066C154.125 38.3242 154.979 36.9213 156.213 35.9259C157.439 34.9265 158.969 34.4261 160.816 34.4261C161.95 34.4261 163.005 34.6876 164.008 35.2092L164.016 35.2052ZM183.331 40.6641C182.737 42.854 181.84 44.5263 180.614 45.6809C179.387 46.8409 177.91 47.4196 176.195 47.4196C174.48 47.4196 173.307 46.8356 172.687 45.6677C172.054 44.4931 172.04 42.8009 172.634 40.5765C173.227 38.3534 174.138 36.6479 175.391 35.4667C176.644 34.2762 178.121 33.6816 179.835 33.6816C181.524 33.6816 182.658 34.2921 183.265 35.5264C183.872 36.7607 183.885 38.4728 183.302 40.6627L183.331 40.6641ZM188.156 29.8592C186.87 28.8239 185.227 28.3063 183.236 28.3063C181.491 28.3063 179.828 28.7045 178.25 29.5088C176.674 30.3118 175.394 31.4067 174.412 32.7923L174.436 32.6331L175.6 28.9036H168.821L167.093 35.3937L167.04 35.6193L159.918 62.3548H166.869L170.456 48.8968C170.812 50.0939 171.538 51.0336 172.646 51.7131C173.754 52.39 175.121 52.7258 176.748 52.7258C178.766 52.7258 180.691 52.2347 182.518 51.2526C184.352 50.2678 185.934 48.8503 187.28 47.0188C188.625 45.1872 189.624 43.0637 190.261 40.6614C190.907 38.2552 191.039 36.109 190.67 34.231C190.294 32.3504 189.461 30.8944 188.177 29.8645L188.156 29.8592ZM211.213 40.5685C210.619 42.7849 209.709 44.4838 208.482 45.6517C207.256 46.8276 205.778 47.4129 204.064 47.4129C202.309 47.4129 201.122 46.8422 200.502 45.6876C199.869 44.5329 199.856 42.8606 200.437 40.6707C201.017 38.4808 201.943 36.7687 203.222 35.5344C204.502 34.3 205.999 33.6842 207.716 33.6842C209.431 33.6842 210.591 34.2815 211.198 35.4627C211.805 36.6479 211.809 38.3507 211.218 40.5725L211.213 40.5685ZM214.312 28.9089L213.424 32.2402C213.042 31.0391 212.303 30.0835 211.209 29.3734C210.101 28.6647 208.742 28.3116 207.12 28.3116C205.128 28.3116 203.205 28.8293 201.369 29.8645C199.536 30.8997 197.927 32.3517 196.555 34.231C195.183 36.1104 194.181 38.2525 193.534 40.6548C192.895 43.0663 192.769 45.1806 193.152 47.0201C193.538 48.8517 194.371 50.2665 195.658 51.2539C196.943 52.2361 198.599 52.7324 200.617 52.7324C202.24 52.7324 203.789 52.3927 205.26 51.7105C206.694 51.0551 207.969 50.0937 208.997 48.8928L208.073 52.3675H214.919L221.168 28.9155H214.323L214.312 28.9089ZM249.907 28.9169L249.911 28.9102H245.704C245.569 28.9102 245.45 28.9169 245.328 28.9195H243.145L242.024 30.4856L241.747 30.8572L241.628 31.0431L232.758 43.4764L230.925 28.9169H223.66L227.34 51.0416L219.215 62.3627H226.456L228.421 59.5583C228.477 59.476 228.527 59.407 228.593 59.3194L230.888 56.0412L230.954 55.9483L241.232 41.2825L249.898 28.9394L249.911 28.9315H249.907V28.9169Z" fill="white"/>
</svg>
