<svg width="230" height="79" viewBox="0 0 230 79" fill="none" xmlns="http://www.w3.org/2000/svg">
<g clip-path="url(#clip0_212_874)">
<path d="M34.6193 5.06763C15.5655 5.06763 0.118652 20.5421 0.118652 39.6303C0.118652 58.7194 15.5655 74.1926 34.6193 74.1926C53.6751 74.1926 69.1203 58.7194 69.1203 39.6303C69.1203 20.5433 53.6751 5.06928 34.6189 5.06928L34.6193 5.06763V5.06763ZM50.441 54.917C49.8231 55.9323 48.4965 56.2542 47.483 55.631C39.3826 50.6741 29.1852 49.5515 17.176 52.3003C16.0187 52.5644 14.8651 51.838 14.6015 50.6782C14.3366 49.5185 15.0588 48.3628 16.2189 48.0987C29.3612 45.0907 40.6342 46.3859 49.7283 51.9536C50.7418 52.5768 51.0631 53.9017 50.441 54.917V54.917ZM54.6639 45.5059C53.8852 46.7738 52.229 47.1742 50.9643 46.3941C41.6905 40.6836 27.5542 39.0298 16.5852 42.3655C15.1626 42.796 13.6601 41.9928 13.2283 40.5701C12.7999 39.145 13.602 37.6426 15.0221 37.2093C27.5517 33.4006 43.1284 35.2455 53.7781 41.8017C55.0429 42.5818 55.4425 44.2409 54.6639 45.5063V45.5059ZM55.0264 35.7061C43.907 29.0897 25.5614 28.4813 14.9451 31.7093C13.2403 32.2272 11.4375 31.2631 10.9208 29.5552C10.4042 27.8465 11.3658 26.0417 13.0718 25.5224C25.2586 21.8161 45.5179 22.5322 58.3198 30.1458C59.8565 31.0576 60.3591 33.0415 59.4486 34.5756C58.5423 36.1118 56.5565 36.6182 55.0281 35.7061H55.0264ZM93.9834 36.974C88.0262 35.5509 86.9674 34.5521 86.9674 32.4534C86.9674 30.4706 88.8295 29.1363 91.6022 29.1363C94.2883 29.1363 96.9497 30.1495 99.743 32.2355C99.8254 32.2986 99.9325 32.3238 100.035 32.3073C100.143 32.2916 100.233 32.2342 100.295 32.148L103.204 28.0405C103.323 27.8713 103.29 27.6381 103.129 27.5089C99.8048 24.8373 96.064 23.5385 91.6887 23.5385C85.2577 23.5385 80.7629 27.4053 80.7629 32.9379C80.7629 38.8709 84.6397 40.9717 91.3385 42.5933C97.0362 43.9087 98.0003 45.0107 98.0003 46.9802C98.0003 49.1635 96.0557 50.5214 92.9247 50.5214C89.4475 50.5214 86.609 49.3451 83.4367 46.5964C83.3584 46.5262 83.2513 46.4973 83.1524 46.5014C83.0453 46.5097 82.9506 46.5592 82.8846 46.6376L79.6217 50.5255C79.4858 50.6906 79.5023 50.93 79.6588 51.0703C83.3502 54.3722 87.8902 56.1139 92.7928 56.1139C99.7224 56.1139 104.201 52.3209 104.201 46.4478C104.213 41.4922 101.251 38.7475 93.9958 36.9794L93.9834 36.974V36.974ZM119.881 31.0885C116.877 31.0885 114.414 32.2739 112.378 34.7028V31.9689C112.378 31.753 112.205 31.5772 111.991 31.5772H106.656C106.442 31.5772 106.269 31.753 106.269 31.9689V62.3461C106.269 62.5607 106.442 62.7382 106.656 62.7382H111.991C112.205 62.7382 112.378 62.5607 112.378 62.3461V52.7584C114.414 55.0408 116.877 56.1593 119.881 56.1593C125.463 56.1593 131.115 51.8545 131.115 43.6251C131.124 35.3941 125.471 31.0881 119.885 31.0881L119.881 31.0885ZM124.911 43.6251C124.911 47.8139 122.336 50.7402 118.645 50.7402C114.999 50.7402 112.247 47.6818 112.247 43.6251C112.247 39.568 114.999 36.5105 118.645 36.5105C122.274 36.5101 124.911 39.5016 124.911 43.6247V43.6251ZM145.597 31.0885C138.407 31.0885 132.776 36.6339 132.776 43.7147C132.776 50.7195 138.37 56.2047 145.51 56.2047C152.724 56.2047 158.372 50.6782 158.372 43.6251C158.372 36.596 152.761 31.0893 145.597 31.0893V31.0885V31.0885ZM145.597 50.7814C141.773 50.7814 138.89 47.7025 138.89 43.6231C138.89 39.5251 141.675 36.5514 145.51 36.5514C149.358 36.5514 152.258 39.6291 152.258 43.7126C152.258 47.8098 149.457 50.7814 145.597 50.7814V50.7814ZM173.723 31.5772H167.852V25.5654C167.852 25.3499 167.679 25.1741 167.465 25.1741H162.129C161.915 25.1741 161.738 25.3499 161.738 25.5654V31.5772H159.176C158.961 31.5772 158.788 31.753 158.788 31.9689V36.5613C158.788 36.7767 158.961 36.953 159.176 36.953H161.738V48.8375C161.738 53.6375 164.123 56.0726 168.832 56.0726C170.744 56.0726 172.33 55.6764 173.826 54.8262C173.949 54.7601 174.023 54.6281 174.023 54.4877V50.1128C174.023 49.9807 173.953 49.8528 173.838 49.7826C173.723 49.7083 173.578 49.7042 173.459 49.7661C172.433 50.282 171.44 50.5214 170.328 50.5214C168.618 50.5214 167.852 49.7414 167.852 47.9996V36.955H173.723C173.937 36.955 174.11 36.7792 174.11 36.5633V31.9713C174.118 31.7555 173.945 31.5797 173.727 31.5797L173.723 31.5772V31.5772ZM194.173 31.6007V30.8623C194.173 28.6901 195.006 27.7215 196.868 27.7215C197.98 27.7215 198.874 27.9427 199.875 28.277C199.999 28.3158 200.127 28.2964 200.225 28.2225C200.328 28.1486 200.386 28.0302 200.386 27.9047V23.4019C200.386 23.2297 200.279 23.0774 200.11 23.0267C199.055 22.7118 197.704 22.3886 195.677 22.3886C190.754 22.3886 188.146 25.1679 188.146 30.4232V31.5541H185.584C185.369 31.5541 185.192 31.7299 185.192 31.9453V36.5613C185.192 36.7767 185.369 36.953 185.584 36.953H188.146V55.2802C188.146 55.4989 188.323 55.6723 188.537 55.6723H193.869C194.087 55.6723 194.26 55.4989 194.26 55.2802V36.9542H199.241L206.871 55.2802C206.006 57.2035 205.153 57.5873 203.991 57.5873C203.052 57.5873 202.059 57.3067 201.049 56.7495C200.955 56.7 200.839 56.6917 200.74 56.7206C200.637 56.7577 200.551 56.832 200.51 56.9311L198.701 60.9057C198.615 61.0955 198.689 61.3143 198.87 61.4133C200.757 62.4369 202.458 62.8744 204.564 62.8744C208.502 62.8744 210.682 61.0336 212.597 56.0891L221.85 32.1356C221.9 32.0151 221.883 31.8789 221.809 31.772C221.739 31.6659 221.62 31.6019 221.492 31.6019H215.938C215.77 31.6019 215.621 31.708 215.568 31.8644L209.878 48.14L203.649 31.8537C203.591 31.7022 203.447 31.6019 203.286 31.6019H194.173V31.6007V31.6007ZM182.317 31.5772H176.981C176.767 31.5772 176.59 31.753 176.59 31.9689V55.2802C176.59 55.4989 176.767 55.6723 176.981 55.6723H182.317C182.531 55.6723 182.708 55.4989 182.708 55.2802V31.9705C182.708 31.7546 182.535 31.5788 182.317 31.5788V31.5772ZM179.68 20.9622C177.566 20.9622 175.853 22.6759 175.853 24.7927C175.853 26.9109 177.566 28.6266 179.68 28.6266C181.793 28.6266 183.503 26.9109 183.503 24.7927C183.503 22.6763 181.789 20.9622 179.68 20.9622ZM226.407 39.0727C224.298 39.0727 222.654 37.3744 222.654 35.312C222.654 33.2496 224.318 31.5318 226.428 31.5318C228.537 31.5318 230.181 33.2297 230.181 35.2905C230.181 37.3529 228.516 39.0727 226.407 39.0727ZM226.428 31.9057C224.504 31.9057 223.049 33.4369 223.049 35.312C223.049 37.1862 224.495 38.6967 226.407 38.6967C228.331 38.6967 229.785 37.1668 229.785 35.2905C229.785 33.4163 228.339 31.9057 226.428 31.9057V31.9057ZM227.26 35.6772L228.323 37.1663H227.424L226.469 35.8002H225.649V37.1663H224.899V33.219H226.654C227.573 33.219 228.174 33.6883 228.174 34.4782C228.178 35.1254 227.804 35.5208 227.264 35.6772H227.26ZM226.625 33.8963H225.649V35.1448H226.625C227.111 35.1448 227.404 34.9058 227.404 34.5199C227.404 34.1138 227.111 33.8963 226.625 33.8963V33.8963Z" fill="white" fill-opacity="0.8"/>
</g>
<defs>
<clipPath id="clip0_212_874">
<rect width="230" height="79" fill="white"/>
</clipPath>
</defs>
</svg>
