<svg width="250" height="77" viewBox="0 0 250 77" fill="none" xmlns="http://www.w3.org/2000/svg">
<path d="M243.822 45.6648C243.68 46.3754 243.432 46.9792 243.095 47.5119C242.758 48.0441 242.314 48.4711 241.747 48.8079C241.197 49.1281 240.506 49.305 239.689 49.305C238.891 49.305 238.199 49.1456 237.65 48.8079C237.101 48.4865 236.634 48.0431 236.284 47.5119C235.946 46.9797 235.698 46.3754 235.539 45.6648C235.382 44.9594 235.305 44.2389 235.308 43.5164C235.308 42.7707 235.379 42.0246 235.521 41.333C235.663 40.6224 235.911 40.001 236.249 39.4683C236.585 38.917 237.029 38.4916 237.596 38.1368C238.146 37.799 238.838 37.6216 239.654 37.6216C240.452 37.6216 241.126 37.799 241.676 38.1368C242.227 38.4779 242.694 38.939 243.042 39.4858C243.397 40.0361 243.645 40.675 243.805 41.3681C243.964 42.0782 244.035 42.7883 244.035 43.5164C244.035 44.2446 243.964 44.9547 243.822 45.6648ZM248.541 39.9298C248.204 38.7401 247.707 37.7103 247.033 36.8048C246.341 35.9173 245.49 35.1886 244.461 34.6564C243.432 34.1237 242.191 33.8396 240.754 33.8396C239.618 33.8396 238.589 34.0706 237.649 34.5146C236.709 34.9586 235.928 35.6862 235.325 36.6629H235.254V34.3367H230.5V58.9648H235.503V50.3168H235.573C236.163 51.1856 236.971 51.8839 237.915 52.3413C238.873 52.8029 239.902 53.0339 241.037 53.0339C242.368 53.0339 243.538 52.7678 244.55 52.2526C245.525 51.7522 246.379 51.0429 247.051 50.175C247.725 49.305 248.221 48.3102 248.541 47.1742C248.878 46.0376 249.038 44.8665 249.038 43.6407C249.038 42.3448 248.878 41.102 248.541 39.9118V39.9298V39.9298ZM223.866 45.6648C223.725 46.3754 223.476 46.9792 223.139 47.5119C222.802 48.0446 222.359 48.4711 221.791 48.8079C221.241 49.1281 220.549 49.305 219.734 49.305C218.935 49.305 218.261 49.1456 217.693 48.8079C217.145 48.4863 216.677 48.0429 216.327 47.5119C215.99 46.9797 215.742 46.3754 215.583 45.6648C215.426 44.9595 215.349 44.2389 215.352 43.5164C215.352 42.7707 215.423 42.0246 215.564 41.333C215.707 40.6224 215.954 40.001 216.292 39.4683C216.629 38.917 217.072 38.4916 217.64 38.1368C218.19 37.799 218.882 37.6216 219.697 37.6216C220.496 37.6216 221.17 37.799 221.72 38.1368C222.271 38.4778 222.738 38.939 223.085 39.4858C223.44 40.0361 223.689 40.675 223.849 41.3681C224.008 42.0782 224.079 42.7883 224.079 43.5164C224.079 44.2446 224.008 44.9547 223.866 45.6648V45.6648ZM227.076 36.8048C226.403 35.9173 225.534 35.1886 224.505 34.6564C223.476 34.1237 222.234 33.8396 220.797 33.8396C219.662 33.8396 218.633 34.0706 217.693 34.5146C216.753 34.9586 215.972 35.6862 215.369 36.6629H215.298V34.3367H210.544V58.9648H215.546V50.3168H215.618C216.207 51.1856 217.015 51.8839 217.959 52.3413C218.917 52.8029 219.945 53.0339 221.08 53.0339C222.429 53.0339 223.582 52.7678 224.594 52.2526C225.569 51.7519 226.423 51.0426 227.094 50.175C227.769 49.305 228.265 48.3102 228.603 47.1742C228.93 46.0249 229.097 44.8358 229.1 43.6407C229.1 42.3448 228.939 41.102 228.603 39.9118C228.265 38.7226 227.769 37.6923 227.076 36.7872V36.8048V36.8048ZM194.153 42.8419L197.435 33.5905H197.506L200.681 42.8419H194.153ZM194.685 27.376L185.16 52.5719H190.73L192.699 46.9612H202.118L204.016 52.5719H209.763L200.344 27.376H194.668H194.685V27.376ZM184.752 44.5818C184.414 44.0135 183.989 43.5164 183.439 43.126C182.907 42.7357 182.285 42.433 181.594 42.1849C180.893 41.9544 180.183 41.7531 179.465 41.5815C178.756 41.4212 178.064 41.2613 177.389 41.1195C176.715 40.9777 176.094 40.8173 175.58 40.6399C175.048 40.4625 174.622 40.232 174.303 39.9474C173.965 39.6632 173.806 39.3084 173.806 38.8469C173.806 38.474 173.895 38.1719 174.09 37.9408C174.285 37.7103 174.516 37.5504 174.782 37.4262C175.048 37.3019 175.349 37.2307 175.687 37.1956C175.993 37.1617 176.301 37.144 176.609 37.1425C177.496 37.1425 178.276 37.3199 178.933 37.6572C179.59 37.9944 179.962 38.6514 180.015 39.6101H184.769C184.68 38.4735 184.379 37.5504 183.9 36.8043C183.421 36.0581 182.818 35.4728 182.091 35.0288C181.363 34.5848 180.53 34.2655 179.607 34.0701C178.685 33.8746 177.727 33.7859 176.733 33.7859C175.741 33.7859 174.783 33.8751 173.842 34.052C172.902 34.2294 172.051 34.5316 171.306 34.9756C170.544 35.4196 169.94 36.006 169.497 36.7511C169.035 37.4968 168.805 38.474 168.805 39.6452C168.805 40.4445 168.964 41.119 169.302 41.6692C169.621 42.2205 170.064 42.6815 170.596 43.0544C171.146 43.4097 171.75 43.7119 172.442 43.9424C173.133 44.1729 173.843 44.3688 174.57 44.5282C176.362 44.901 177.746 45.2739 178.757 45.6467C179.75 46.0196 180.247 46.5879 180.247 47.3335C180.247 47.7775 180.14 48.1504 179.928 48.4521C179.719 48.7469 179.446 48.9898 179.129 49.1622C178.81 49.3396 178.455 49.4643 178.065 49.5525C177.698 49.636 177.323 49.6777 176.947 49.6768C176.451 49.6768 175.972 49.6242 175.528 49.4994C175.067 49.3751 174.659 49.1967 174.304 48.9487C173.949 48.7001 173.666 48.3804 173.435 47.99C173.205 47.5996 173.098 47.1376 173.098 46.6049H168.344C168.397 47.8297 168.664 48.8419 169.178 49.6588C169.675 50.4761 170.331 51.1151 171.111 51.6122C171.892 52.1093 172.797 52.4641 173.808 52.6771C174.819 52.8906 175.847 52.9973 176.912 52.9973C177.941 52.9973 178.969 52.8906 179.963 52.6946C180.956 52.4997 181.843 52.1444 182.624 51.6473C183.404 51.1502 184.025 50.4932 184.504 49.6939C184.983 48.8775 185.231 47.8833 185.231 46.6756C185.231 45.8236 185.072 45.1135 184.735 44.5447L184.752 44.5818V44.5818ZM164.05 28.8678H159.048V34.3367H156.014V37.6923H159.048V48.4531C159.048 49.3767 159.207 50.1048 159.509 50.6726C159.811 51.2414 160.236 51.6668 160.768 51.987C161.301 52.2887 161.904 52.5017 162.596 52.6084C163.324 52.7169 164.059 52.7702 164.795 52.7678C165.292 52.7678 165.789 52.7503 166.321 52.7327C166.791 52.7168 167.259 52.6693 167.722 52.5904V48.7016C167.477 48.7569 167.228 48.7925 166.978 48.8079C166.706 48.8291 166.434 48.841 166.162 48.8434C165.31 48.8434 164.76 48.7016 164.477 48.417C164.193 48.1333 164.051 47.5646 164.051 46.7307V37.6923H167.722V34.3367H164.051V28.8678H164.05ZM149.699 45.523C149.699 45.8066 149.664 46.1799 149.61 46.6595C149.551 47.15 149.387 47.6222 149.131 48.0446C148.865 48.5067 148.475 48.8971 147.925 49.2348C147.393 49.5716 146.613 49.732 145.637 49.732C145.247 49.732 144.856 49.6959 144.466 49.6252C144.094 49.5535 143.757 49.4293 143.473 49.2524C143.189 49.0745 142.976 48.8439 142.799 48.5242C142.64 48.2225 142.55 47.8497 142.55 47.3877C142.55 46.9081 142.64 46.5352 142.799 46.216C142.958 45.9133 143.189 45.6648 143.456 45.4523C143.721 45.2568 144.041 45.0975 144.413 44.9732C144.786 44.8489 145.141 44.7597 145.531 44.6886C145.931 44.6196 146.333 44.5604 146.737 44.5112C147.145 44.458 147.518 44.4044 147.89 44.3338C148.263 44.2631 148.6 44.1739 148.919 44.0677C149.238 43.9614 149.504 43.8191 149.717 43.6237V45.4884L149.699 45.523V45.523ZM154.701 48.5237V39.0238C154.701 37.9233 154.453 37.0353 153.957 36.3608C153.46 35.6857 152.821 35.1711 152.058 34.7982C151.278 34.4254 150.426 34.1768 149.486 34.035C148.563 33.9087 147.633 33.8435 146.702 33.8396C145.69 33.8396 144.679 33.9463 143.686 34.1418C142.693 34.3372 141.788 34.674 140.989 35.154C140.203 35.6222 139.531 36.2591 139.02 37.0187C138.506 37.8 138.204 38.7762 138.134 39.9484H143.136C143.225 38.9546 143.562 38.2621 144.129 37.8356C144.697 37.4091 145.46 37.1966 146.453 37.1966C146.897 37.1966 147.322 37.2317 147.713 37.2853C148.076 37.3332 148.426 37.454 148.742 37.6407C149.044 37.8181 149.274 38.0666 149.452 38.3863C149.629 38.7061 149.717 39.1315 149.717 39.6823C149.735 40.1969 149.593 40.5883 149.256 40.8719C148.919 41.138 148.475 41.3515 147.908 41.4934C147.341 41.6352 146.702 41.7419 145.975 41.8131C145.247 41.8842 144.502 41.9729 143.757 42.0972C143.012 42.2215 142.267 42.3809 141.522 42.5763C140.777 42.7717 140.12 43.0734 139.553 43.4823C138.967 43.8903 138.506 44.423 138.134 45.0799C137.761 45.755 137.584 46.6074 137.584 47.6372C137.584 48.5783 137.743 49.3952 138.063 50.0697C138.362 50.7273 138.812 51.3053 139.375 51.757C139.961 52.213 140.63 52.5507 141.344 52.7513C142.089 52.9642 142.905 53.0705 143.774 53.0705C144.91 53.0705 146.01 52.9111 147.092 52.5734C148.162 52.2464 149.132 51.6541 149.912 50.8515C149.93 51.1532 149.983 51.4543 150.036 51.757C150.089 52.0407 150.178 52.3428 150.267 52.627H155.341C155.11 52.2541 154.933 51.6854 154.844 50.9397C154.75 50.1561 154.703 49.3676 154.702 48.5783V48.5237H154.701ZM134.089 35.9168C133.593 35.2778 132.918 34.7627 132.067 34.4074C131.216 34.0345 130.116 33.8566 128.768 33.8566C127.827 33.8566 126.87 34.1052 125.876 34.5848C124.883 35.0643 124.085 35.8456 123.446 36.893H123.34V27.3935H118.337V52.5899H123.34V43.0193C123.34 41.1546 123.642 39.8231 124.262 39.0062C124.866 38.1894 125.859 37.799 127.225 37.799C128.413 37.799 129.265 38.1718 129.726 38.917C130.187 39.6627 130.436 40.7817 130.436 42.2907V52.5899H135.438V41.3681C135.438 40.2315 135.331 39.2022 135.136 38.2786C134.941 37.355 134.586 36.5562 134.089 35.9168ZM107.64 44.7597H107.569L103.277 27.394H98.0968L93.7328 44.5467H93.6617L89.6702 27.394H84.1362L90.8056 52.5904H96.4112L100.597 35.4372H100.669L104.926 52.5904H110.425L113.44 41.4036L117.201 27.394H111.773L107.64 44.7597V44.7597Z" fill="white" fill-opacity="0.8"/>
<path d="M37.2169 67.7535C31.0967 67.7535 25.385 65.9069 20.6135 62.7643L9.01185 66.4746L12.7726 55.2528C9.15403 50.2806 7.02584 44.1547 7.02584 37.5493C7.02584 20.8937 20.5604 7.3456 37.1994 7.3456C53.8384 7.3456 67.3729 20.8937 67.3729 37.5493C67.3729 54.2044 53.8384 67.753 37.1994 67.753H37.2169V67.7535ZM37.2169 1.62769C17.4019 1.62769 1.33117 17.716 1.33117 37.5498C1.33117 44.3326 3.21154 50.6895 6.47515 56.1052L0.000488281 75.3712L19.8685 68.9968C25.179 71.9362 31.1487 73.4759 37.2169 73.4714C57.0314 73.4714 73.1026 57.3841 73.1026 37.5498C73.1021 17.716 57.0314 1.62769 37.2169 1.62769Z" fill="white"/>
<path d="M28.7904 22.6881C28.2052 21.2854 27.7616 21.2323 26.875 21.1962C26.5383 21.1745 26.2011 21.1628 25.8637 21.1611C24.7103 21.1611 23.5042 21.4984 22.7768 22.2441C21.8902 23.1496 19.6904 25.2624 19.6904 29.5952C19.6904 33.928 22.8479 38.1184 23.2734 38.7048C23.717 39.2901 29.4292 48.3105 38.2984 51.9868C45.2341 54.8633 47.2922 54.5967 48.8707 54.2594C51.1766 53.7623 54.0683 52.0569 54.7957 49.9978C55.5231 47.9376 55.5231 46.1796 55.3098 45.8068C55.0971 45.434 54.5113 45.2215 53.6247 44.777C52.7381 44.333 48.4272 42.2022 47.6111 41.918C46.8126 41.6163 46.0502 41.7231 45.4474 42.5755C44.5958 43.7652 43.7623 44.9729 43.0879 45.7006C42.5558 46.2688 41.6862 46.34 40.9593 46.0378C39.9835 45.6299 37.2521 44.6702 33.8813 41.6695C31.2735 39.3437 29.4998 36.4497 28.9857 35.5797C28.471 34.6922 28.9326 34.1765 29.3401 33.6975C29.7837 33.1467 30.2092 32.7563 30.6528 32.2412C31.0963 31.7265 31.3446 31.4599 31.6285 30.856C31.9304 30.2702 31.7171 29.6663 31.5043 29.2223C31.2916 28.7783 29.5178 24.4456 28.7904 22.6881V22.6881Z" fill="white"/>
</svg>
