<svg width="440" height="581" fill="none" xmlns="http://www.w3.org/2000/svg"><g clip-path="url(#prefix__clip0_6029_35)"><path d="M15.17 242.18l8.29 27.09 8.74-26.36c1.11-1.13 11.11-1.22 12.5-.54 1.54.76 7.16 24.12 8.49 27.48 1.49.17.89-.03 1.14-.83 2.61-8.7 5.07-17.47 7.48-26.22.94-.97 10.19-.91 12.08-.73 4.66.46 2.95 3.41 2.1 6.69-3.76 14.48-9.44 28.59-13.71 42.92-.06 3.93-13.74 2.72-14.62 1.82l-8.92-25.36-9.01 24.97c-.63.84-1.29.99-2.28 1.12-1.98.25-10.55.31-11.67-.84L0 245.15c-.27-5.42 11.68-2.25 15.17-2.97z" fill="#fff"/><path d="M90.5 243h31l7.5 7.5 4 8-3 6.5-1 8-7.5 7.5-4 8-6 8-10.5.5-10.5-15.5-7-8.5-1-6.5-3-8 3.5-7 7.5-8.5z" fill="#F5B03B"/><path d="M241.52 220.58c2.18 2.22.82 4.77.82 7.06 0 5.58.05 11.16.03 16.73 16.21-7.01 33.97-.59 36.74 17.91 2.73 18.21-7.35 33.74-26.86 33.09-15.94-.54-24.37-11.81-25.2-26.9-.68-12.34-1.01-31.53 0-43.66.13-1.5.27-3.14 1.44-4.23h13.03zm10.92 34.68c-14.25 1.56-13.32 27.25 2.1 25.93 14.42-1.24 12.99-27.58-2.1-25.93zM191.39 257.96l2.01-.54 13.43-14.89c1.68-.68 11.05-.74 13.19-.46 1.45.19 2.71.75 2.45 2.45-.35 2.27-11.28 13.78-13.51 16.57-.82 1.03-3.97 4.72-3.97 5.65 1.76 4.97 19.84 21.39 19.87 24.92 0 .65-.07 1.26-.61 1.71-1.7 1.71-11.5.53-14.34.72l-17.1-18.03-1.42.87v15.86c0 1.01-2.24 1.37-3.08 1.45-1.83.18-11.64.48-11.64-1.45v-71.36l.85-.85h13.03l.85.85v36.53h-.01zM356.21 273.82c1.76 7.52 10.18 7.98 16.64 7.29 3.76-.4 11.23-4.61 13.78-1.47.97 1.2 1.07 8.07.62 9.63-1.1 3.76-15.84 6.12-19.42 6.12-37.44 0-35.1-55.75 1.16-53.88 11.74.6 21.33 9.44 22.37 21.24.21 2.36.83 11.06-2.57 11.06h-32.57l-.01.01zm20.95-11.33c-2.19-10.99-18.27-10.34-20.96 0h20.96z" fill="#fff"/><path d="M300.14 273.82c1.76 7.65 10.14 8.03 16.65 7.3 3.5-.39 11.67-4.66 13.98-1.4.93 1.31.87 9.62-.21 10.93-1.98 2.4-15.42 4.73-18.81 4.73-36.02-.02-35.51-52.72-1.73-53.87 14.61-.5 25.19 10.1 25.28 24.66.01 1.99-.63 7.64-3.16 7.64h-32v.01zm20.95-11.33c-3.06-10.61-17.97-10.8-20.96 0h20.96zM154.58 292.79c-.59 1.95-10.16 1.64-12.14 1.36-2.46-.34-2.41-1.34-2.6-3.6-.6-7.07-.83-29.29.89-35.41 2.1-7.47 8.79-12.27 16.42-13.04 2.24-.22 8.72-.37 10.74 0 3.47.65 2.89 7.69 2.57 10.47-.64 5.57-7.5 1.69-12.11 4.31-2.09 1.19-3.76 5.38-3.76 7.57v28.32l-.01.02zM90.01 243.24l5.48-7.65-4.84-8.36 7.28-10.87c.04-1.6-3.17-5.42-4.56-6.2-2.48-1.39-5.51-.3-7.07-1.42-2.01-1.43-1.79-4.81 1.14-5.17 7.78-.96 13.73 4.79 15.7 11.83 7.15 1.36 5.55-1.58 8.5-5.75 2.63-3.72 6.84-6.43 11.54-6.09 3.73.28 5.07 3.77 1.73 5.19-2.41 1.02-4.31.02-7.1 1.97-9.43 6.58 5.2 12.54 3.06 18.34-.57 1.55-4.24 5.23-4.24 6.55l5.11 7.64H90.02l-.01-.01zM79.25 258.53c-.31-.27 3.42-7.04 3.7-7.34.61-.65 2.07-.86 2.97-1 8.54-1.33 29.2-.74 38.38-.18 1.59.1 3.13.33 4.66.72l4.1 7.8H79.25zM130.23 265.32l-1.24 7.82c-1.33.49-2.7.62-4.12.7-13.08.74-26.97-.5-40.13-.17-2.87-.54-2.5-5.97-2.66-8.36h48.14l.01.01zM121.73 280.62l-4.27 7.94-21.96.44-5.49-8.1 31.72-.28zM111.54 296.47l-3.87 9.44c-.85.56-.86 4.01-2.07 3.59-.62-.22-4.36-11-4.69-12.31-.11-.44-.19-.83-.12-1.29.21-.28.72.57.84.57h9.91z" fill="#fff"/></g><defs><clipPath id="prefix__clip0_6029_35"><path fill="#fff" d="M0 0h440v581H0z"/></clipPath></defs></svg>