<svg width="440" height="581" viewBox="0 0 440 581" fill="none" xmlns="http://www.w3.org/2000/svg">
<g clip-path="url(#clip0_6029_35)">
<path d="M15.1701 242.18L23.4601 269.27L32.2001 242.91C33.3101 241.78 43.3101 241.69 44.7001 242.37C46.2401 243.13 51.8601 266.49 53.1901 269.85C54.6801 270.02 54.0801 269.82 54.3301 269.02C56.9401 260.32 59.4001 251.55 61.8101 242.8C62.7501 241.83 72.0001 241.89 73.8901 242.07C78.5501 242.53 76.8401 245.48 75.9901 248.76C72.2301 263.24 66.5501 277.35 62.2801 291.68C62.2201 295.61 48.5401 294.4 47.6601 293.5L38.7401 268.14L29.7301 293.11C29.1001 293.95 28.4401 294.1 27.4501 294.23C25.4701 294.48 16.9001 294.54 15.7801 293.39L0.000107973 245.15C-0.269892 239.73 11.6801 242.9 15.1701 242.18Z" fill="white"/>
<path d="M90.5 243H121.5L129 250.5L133 258.5L130 265L129 273L121.5 280.5L117.5 288.5L111.5 296.5L101 297L90.5 281.5L83.5 273L82.5 266.5L79.5 258.5L83 251.5L90.5 243Z" fill="#F5B03B"/>
<path d="M241.52 220.58C243.7 222.8 242.34 225.35 242.34 227.64C242.34 233.22 242.39 238.8 242.37 244.37C258.58 237.36 276.34 243.78 279.11 262.28C281.84 280.49 271.76 296.02 252.25 295.37C236.31 294.83 227.88 283.56 227.05 268.47C226.37 256.13 226.04 236.94 227.05 224.81C227.18 223.31 227.32 221.67 228.49 220.58H241.52ZM252.44 255.26C238.19 256.82 239.12 282.51 254.54 281.19C268.96 279.95 267.53 253.61 252.44 255.26Z" fill="white"/>
<path d="M191.39 257.96L193.4 257.42L206.83 242.53C208.51 241.85 217.88 241.79 220.02 242.07C221.47 242.26 222.73 242.82 222.47 244.52C222.12 246.79 211.19 258.3 208.96 261.09C208.14 262.12 204.99 265.81 204.99 266.74C206.75 271.71 224.83 288.13 224.86 291.66C224.86 292.31 224.79 292.92 224.25 293.37C222.55 295.08 212.75 293.9 209.91 294.09L192.81 276.06L191.39 276.93V292.79C191.39 293.8 189.15 294.16 188.31 294.24C186.48 294.42 176.67 294.72 176.67 292.79V221.43L177.52 220.58H190.55L191.4 221.43V257.96H191.39Z" fill="white"/>
<path d="M356.21 273.82C357.97 281.34 366.39 281.8 372.85 281.11C376.61 280.71 384.08 276.5 386.63 279.64C387.6 280.84 387.7 287.71 387.25 289.27C386.15 293.03 371.41 295.39 367.83 295.39C330.39 295.39 332.73 239.64 368.99 241.51C380.73 242.11 390.32 250.95 391.36 262.75C391.57 265.11 392.19 273.81 388.79 273.81H356.22L356.21 273.82ZM377.16 262.49C374.97 251.5 358.89 252.15 356.2 262.49H377.16Z" fill="white"/>
<path d="M300.14 273.82C301.9 281.47 310.28 281.85 316.79 281.12C320.29 280.73 328.46 276.46 330.77 279.72C331.7 281.03 331.64 289.34 330.56 290.65C328.58 293.05 315.14 295.38 311.75 295.38C275.73 295.36 276.24 242.66 310.02 241.51C324.63 241.01 335.21 251.61 335.3 266.17C335.31 268.16 334.67 273.81 332.14 273.81H300.14V273.82ZM321.09 262.49C318.03 251.88 303.12 251.69 300.13 262.49H321.09Z" fill="white"/>
<path d="M154.58 292.79C153.99 294.74 144.42 294.43 142.44 294.15C139.98 293.81 140.03 292.81 139.84 290.55C139.24 283.48 139.01 261.26 140.73 255.14C142.83 247.67 149.52 242.87 157.15 242.1C159.39 241.88 165.87 241.73 167.89 242.1C171.36 242.75 170.78 249.79 170.46 252.57C169.82 258.14 162.96 254.26 158.35 256.88C156.26 258.07 154.59 262.26 154.59 264.45V292.77L154.58 292.79Z" fill="white"/>
<path d="M90.0102 243.24L95.4902 235.59L90.6502 227.23L97.9302 216.36C97.9702 214.76 94.7602 210.94 93.3702 210.16C90.8902 208.77 87.8602 209.86 86.3002 208.74C84.2902 207.31 84.5102 203.93 87.4402 203.57C95.2202 202.61 101.17 208.36 103.14 215.4C110.29 216.76 108.69 213.82 111.64 209.65C114.27 205.93 118.48 203.22 123.18 203.56C126.91 203.84 128.25 207.33 124.91 208.75C122.5 209.77 120.6 208.77 117.81 210.72C108.38 217.3 123.01 223.26 120.87 229.06C120.3 230.61 116.63 234.29 116.63 235.61L121.74 243.25H90.0202L90.0102 243.24Z" fill="white"/>
<path d="M79.2502 258.53C78.9402 258.26 82.6702 251.49 82.9502 251.19C83.5602 250.54 85.0202 250.33 85.9202 250.19C94.4602 248.86 115.12 249.45 124.3 250.01C125.89 250.11 127.43 250.34 128.96 250.73L133.06 258.53H79.2602H79.2502Z" fill="white"/>
<path d="M130.23 265.32L128.99 273.14C127.66 273.63 126.29 273.76 124.87 273.84C111.79 274.58 97.9001 273.34 84.7401 273.67C81.8701 273.13 82.2401 267.7 82.0801 265.31H130.22L130.23 265.32Z" fill="white"/>
<path d="M121.73 280.62L117.46 288.56L95.5003 289L90.0103 280.9L121.73 280.62Z" fill="white"/>
<path d="M111.54 296.47L107.67 305.91C106.82 306.47 106.81 309.92 105.6 309.5C104.98 309.28 101.24 298.5 100.91 297.19C100.8 296.75 100.72 296.36 100.79 295.9C101 295.62 101.51 296.47 101.63 296.47H111.54Z" fill="white"/>
</g>
<defs>
<clipPath id="clip0_6029_35">
<rect width="440" height="581" fill="white"/>
</clipPath>
</defs>
</svg>
